<svg width="20" height="20" viewBox="0 0 20 20" fill="none" xmlns="http://www.w3.org/2000/svg">
  <path d="M20 10.06C20 4.5 15.52 0 10 0S0 4.5 0 10.06c0 5 3.66 9.13 8.44 9.93v-7.03H5.9v-2.9h2.54V7.8c0-2.5 1.49-3.89 3.77-3.89 1.09 0 2.23.2 2.23.2v2.45h-1.25c-1.23 0-1.61.77-1.61 1.56v1.87h2.74l-.44 2.9h-2.3v7.03C16.34 19.19 20 15.06 20 10.06z" fill="#1877F3"/>
  <path d="M13.71 12.96l.44-2.9h-2.74V8.19c0-.79.38-1.56 1.61-1.56h1.25V4.18s-1.14-.2-2.23-.2c-2.28 0-3.77 1.39-3.77 3.89v1.23H5.9v2.9h2.54v7.03c.51.08 1.03.13 1.56.13s1.05-.05 1.56-.13v-7.03h2.15z" fill="#fff"/>
</svg>
