<?xml version="1.0" standalone="no"?>
<!DOCTYPE svg PUBLIC "-//W3C//DTD SVG 20010904//EN"
 "http://www.w3.org/TR/2001/REC-SVG-20010904/DTD/svg10.dtd">
<svg version="1.0" xmlns="http://www.w3.org/2000/svg"
 width="600.000000pt" height="600.000000pt" viewBox="0 0 600.000000 600.000000"
 preserveAspectRatio="xMidYMid meet">
<g transform="translate(0.000000,600.000000) scale(0.066667,-0.066667)"
fill="#000000" stroke="none">
<path d="M6900 8880 l-67 -10 60 -2 c33 0 73 5 90 12 34 15 13 15 -83 0z"/>
<path d="M5768 8872 c34 -12 124 -15 118 -4 -4 7 -36 11 -71 11 -34 -1 -56 -4
-47 -7z"/>
<path d="M8456 8855 c11 -4 27 -4 38 0 10 4 2 8 -19 8 -21 0 -29 -4 -19 -8z"/>
<path d="M8674 8854 c39 -3 103 -3 142 0 39 3 7 6 -71 6 -78 0 -110 -3 -71 -6z"/>
<path d="M8922 8855 c11 -5 24 -4 29 1 5 5 -4 8 -20 8 -17 -1 -21 -4 -9 -9z"/>
<path d="M2633 6507 c-82 -118 -3 -162 295 -162 l245 0 117 -476 c299 -1210
364 -1448 399 -1476 52 -42 1855 -43 1904 -2 52 44 56 101 11 147 l-40 39
-873 -3 -873 -3 -26 88 c-13 49 -25 100 -26 115 -1 24 54 26 964 26 748 0 970
4 990 19 16 12 87 226 200 608 l175 590 -31 40 -30 41 -1304 3 -1304 4 -42
191 c-59 264 -26 244 -408 244 -313 0 -320 -1 -343 -33z m1277 -754 c50 -225
66 -205 -154 -200 l-189 5 -43 172 c-24 95 -44 174 -44 177 0 2 89 2 198 0
l199 -4 33 -150z m650 -23 l0 -181 -205 4 -204 5 -28 135 c-16 74 -33 153 -38
176 l-9 41 242 0 242 0 0 -180z m674 154 c0 -15 -16 -94 -34 -176 l-33 -150
-206 -5 -206 -4 0 181 0 180 240 0 c219 0 240 -2 239 -26z m616 21 c0 -3 -6
-25 -14 -49 -8 -24 -32 -103 -54 -175 l-39 -131 -186 0 c-104 0 -187 6 -187
14 0 7 14 73 30 146 17 73 34 148 38 166 7 33 12 34 210 34 111 0 202 -2 202
-5z m-1821 -707 c51 -223 65 -203 -140 -203 l-177 0 -41 161 c-22 89 -41 170
-41 181 0 14 42 18 182 15 l182 -4 35 -150z m531 -24 l0 -180 -145 4 -145 5
-34 150 c-51 222 -65 202 144 202 l180 0 0 -181z m554 155 c0 -15 -16 -94 -34
-176 l-33 -150 -146 -5 -146 -4 0 180 0 181 180 0 c162 0 180 -3 179 -26z
m564 -15 c-5 -23 -28 -102 -50 -176 l-42 -135 -168 -5 c-104 -2 -168 2 -168
11 0 12 19 98 68 312 7 33 13 34 188 34 l181 0 -9 -41z"/>
<path d="M3825 4266 c-245 -106 -212 -476 49 -553 207 -62 412 114 380 327
-29 191 -246 305 -429 226z m214 -204 c78 -90 -39 -221 -137 -153 -52 36 -68
92 -39 136 45 69 124 76 176 17z"/>
<path d="M5078 4267 c-279 -140 -182 -562 129 -562 240 0 383 267 248 462 -77
110 -260 159 -377 100z m185 -181 c73 -52 66 -153 -15 -187 -123 -51 -207 131
-88 192 49 24 62 24 103 -5z"/>
<path d="M4491 3477 c-20 -31 -10 -957 10 -981 22 -26 125 -28 145 -2 20 24
35 944 16 977 -16 29 -154 34 -171 6z"/>
<path d="M3128 3414 c-131 -49 -192 -131 -192 -255 0 -153 63 -219 270 -282
212 -65 263 -121 174 -191 -64 -50 -202 -35 -288 31 -76 59 -174 0 -164 -99 4
-40 17 -52 109 -98 261 -131 556 -28 575 202 14 174 -55 253 -286 325 -151 47
-191 71 -191 117 0 82 131 100 274 36 l90 -41 35 41 c43 49 46 116 9 150 -74
67 -309 103 -415 64z"/>
<path d="M3883 3138 c-261 -136 -227 -573 52 -655 139 -42 260 -23 349 55 103
90 25 176 -114 126 -101 -36 -190 -26 -236 28 -54 63 -46 66 184 71 244 5 246
6 247 112 1 232 -264 377 -482 263z m262 -169 c75 -59 54 -74 -102 -74 -155 0
-163 6 -103 65 50 51 147 55 205 9z"/>
<path d="M4909 3151 c-77 -35 -124 -106 -124 -188 0 -118 60 -170 257 -225 91
-25 116 -53 79 -90 -31 -31 -120 -28 -196 6 -74 34 -122 18 -144 -49 -48 -144
345 -197 478 -64 138 138 65 295 -168 360 -87 24 -120 40 -124 60 -10 56 88
72 192 30 70 -28 115 -11 131 49 27 111 -222 183 -381 111z"/>
<path d="M5621 3159 c-355 -127 -260 -698 117 -699 25 0 72 13 104 30 52 26
61 27 83 7 31 -28 141 -29 163 -1 12 14 16 117 14 341 l-4 321 -73 4 c-40 3
-81 -3 -93 -12 -15 -13 -37 -11 -89 7 -83 28 -147 28 -222 2z m204 -191 c150
-77 96 -313 -72 -313 -116 0 -189 100 -156 217 26 95 138 142 228 96z"/>
</g>
</svg>
